<svg id="Laag_1" data-name="Laag 1" xmlns="http://www.w3.org/2000/svg" viewBox="0 0 62.77 18.82"><defs><style>.cls-1{fill:#fff;fill-rule:evenodd;}</style></defs><path class="cls-1" d="M61.84,9.51a1,1,0,0,1-1-1h0a1,1,0,1,1,2,0h0a1,1,0,0,1-1,1m0-2a.92.92,0,0,0-.92.91v0a.92.92,0,1,0,1.83,0h0a.91.91,0,0,0-.89-.93h0m.22,1,.29.41h-.24l-.26-.38h-.22V9h-.21V7.91h.48c.25,0,.41.13.41.35a.31.31,0,0,1-.25.32M61.9,8.1h-.26v.34h.26c.14,0,.21-.07.21-.17S62,8.1,61.9,8.1M49.1,4.58a1,1,0,1,0,0,2.08h0a1,1,0,0,0,0-2.08h0m.72,2.89H48.36a.09.09,0,0,0-.1.1v6.35a.1.1,0,0,0,.1.11h1.46a.11.11,0,0,0,.11-.11V7.57a.1.1,0,0,0-.11-.1m3.23,0v-.2c0-.59.23-.85.74-.85a2.53,2.53,0,0,1,.82.15.1.1,0,0,0,.13-.07,0,0,0,0,0,0,0V5.24a.1.1,0,0,0-.08-.1A4.12,4.12,0,0,0,53.46,5c-1.34,0-2.05.76-2.05,2.19v.31h-.7a.11.11,0,0,0-.11.11V8.82a.11.11,0,0,0,.11.11h.7v5a.11.11,0,0,0,.1.11H53a.11.11,0,0,0,.11-.11v-5h1.35l2.08,5c-.23.52-.46.63-.78.63a1.66,1.66,0,0,1-.8-.23.14.14,0,0,0-.09,0,.09.09,0,0,0-.06.06l-.49,1.08a.1.1,0,0,0,0,.14,3.08,3.08,0,0,0,1.56.4c1.07,0,1.66-.5,2.19-1.85L60.6,7.62a.1.1,0,0,0-.06-.14H59a.1.1,0,0,0-.1.07L57.33,12l-1.7-4.43a.1.1,0,0,0-.09-.07H53.05m-5.58,0h-1.6V5.83a.1.1,0,0,0-.1-.11H44.31a.1.1,0,0,0-.1.11V7.47h-.7a.1.1,0,0,0-.11.1h0V8.82a.11.11,0,0,0,.11.11h.7v3.23a1.73,1.73,0,0,0,1.93,2,2.66,2.66,0,0,0,1.36-.33.11.11,0,0,0,.06-.1V12.51a.12.12,0,0,0-.11-.11l-.05,0a1.83,1.83,0,0,1-.85.2c-.47,0-.68-.21-.68-.68v-3h1.6a.11.11,0,0,0,.11-.11h0V7.57a.1.1,0,0,0-.1-.1h0M39.8,7.33a3.42,3.42,0,1,0,3.49,3.42A3.43,3.43,0,0,0,39.8,7.33m0,5.36A1.85,1.85,0,0,1,38,10.74a1.81,1.81,0,0,1,1.81-1.92,1.86,1.86,0,0,1,1.84,1.95,1.8,1.8,0,0,1-1.82,1.92m-7-5.36a2.57,2.57,0,0,0-2.05,1V7.57a.09.09,0,0,0-.1-.1H29.18a.09.09,0,0,0-.1.1v8.27a.1.1,0,0,0,.1.11h1.46a.1.1,0,0,0,.1-.11V13.23a2.64,2.64,0,0,0,2.05.93,3.14,3.14,0,0,0,3.06-3.41,3.14,3.14,0,0,0-3.06-3.42m1.37,3.42a1.75,1.75,0,0,1-1.71,1.93,1.8,1.8,0,0,1-1.74-1.93,1.81,1.81,0,0,1,1.74-1.94,1.77,1.77,0,0,1,1.71,1.94M25.72,8.94c-1.62-.39-1.91-.66-1.91-1.24s.51-.9,1.27-.9a3.76,3.76,0,0,1,2.22.84.1.1,0,0,0,.15,0h0l.79-1.12a.11.11,0,0,0,0-.14A4.8,4.8,0,0,0,25.1,5.28c-1.76,0-3,1-3,2.56S23.18,10,25,10.46c1.56.36,1.82.66,1.82,1.2s-.53,1-1.38,1a3.72,3.72,0,0,1-2.59-1.07l-.08,0a.08.08,0,0,0-.07,0l-.89,1a.11.11,0,0,0,0,.15,5.33,5.33,0,0,0,3.58,1.38c1.89,0,3.11-1,3.11-2.64,0-1.35-.81-2.09-2.79-2.58M9.51.31a9.41,9.41,0,1,0,9.41,9.41A9.41,9.41,0,0,0,9.51.31m4.31,13.57a.58.58,0,0,1-.8.19h0c-2.21-1.35-5-1.65-8.27-.91a.57.57,0,0,1-.7-.44.58.58,0,0,1,.44-.7h0c3.58-.82,6.66-.46,9.14,1.05a.59.59,0,0,1,.19.81M15,11.31a.73.73,0,0,1-1,.25,12.3,12.3,0,0,0-9.37-1.1.74.74,0,0,1-.89-.55.73.73,0,0,1,.46-.85,13.69,13.69,0,0,1,10.57,1.25.72.72,0,0,1,.24,1h0m.1-2.67c-3-1.8-8-2-10.93-1.09a.88.88,0,0,1-.53-1.68h0C7,4.87,12.48,5.06,16,7.13a.88.88,0,0,1-.9,1.52" transform="translate(-0.1 -0.31)"/></svg>